# xmcd
#
# Track frame offsets:
#	150
#	15900
#	29980
#	47440
#	60562
#	79402
#	95210
#	113432
#	136942
#	151327
#	165895
#	181055
#
# Disc length: 2685 seconds
#
# Revision: 1
# Processed by: cddbd v1.5.1PL0 Copyright (c) Steve Scherf et al.
# Submitted via: CDex 1.50Beta5
#
DISCID=8a0a7b0c
DTITLE=中村雅俊 - SONGS LIMITED EDITION Disc 1
DYEAR=1998
DGENRE=
TTITLE0=ふれあい
TTITLE1=青春貴族
TTITLE2=白い寫眞館
TTITLE3=いつか街で会ったなら
TTITLE4=俺たちの旅
TTITLE5=ただお前がいい
TTITLE6=あゝ青春
TTITLE7=辛子色の季節
TTITLE8=めぐり逢い
TTITLE9=時代遅れの恋人たち
TTITLE10=海を抱きしめて
TTITLE11=心の色
EXTD=
EXTT0=
EXTT1=
EXTT2=
EXTT3=
EXTT4=
EXTT5=
EXTT6=
EXTT7=
EXTT8=
EXTT9=
EXTT10=
EXTT11=
PLAYORDER=
